# xmcd
#
# Track frame offsets:
#	150
#	17357
#	28258
#	42154
#	55664
#	69360
#	85403
#	99540
#	116708
#	132479
#	142406
#	157119
#	171646
#	185301
#	204085
#	218663
#	232518
#	247541
#
# Disc length: 3462 seconds
#
# Revision: 0
# Processed by: cddbd v1.5.2PL0 Copyright (c) Steve Scherf et al.
# Submitted via: EasyCDDAExtractor 15.2.0.1
#
DISCID=f10d8412
DTITLE=Ponney - A Emoção do Arrocha
DYEAR=1900
DGENRE=
TTITLE0=Sabe
TTITLE1=Eu te amei
TTITLE2=Eu pisei na bola
TTITLE3=Par de asas
TTITLE4=Fim do nosso amor
TTITLE5=Tiro no pé
TTITLE6=Amar amar
TTITLE7=Me ame amor
TTITLE8=Para de brigar
TTITLE9=Me perdoa
TTITLE10=Perdoa
TTITLE11=Loucuras
TTITLE12=Divana
TTITLE13=Razão da minha vida
TTITLE14=Coração errante
TTITLE15=Com você
TTITLE16=Liga pra mim
TTITLE17=Parabéns querida
EXTD=
EXTT0=
EXTT1=
EXTT2=
EXTT3=
EXTT4=
EXTT5=
EXTT6=
EXTT7=
EXTT8=
EXTT9=
EXTT10=
EXTT11=
EXTT12=
EXTT13=
EXTT14=
EXTT15=
EXTT16=
EXTT17=
PLAYORDER=
